PathFileType	4	(X/Y/Z)	../Python\running\Running04\task.trc
DataRate	CameraRate	NumFrames	NumMarkers	Units	OrigDataRate	OrigDataStartFrame	OrigNumFrames
200.000000	200.000000	6	30	mm	200.000000	141	226
Frame#	Time	C7			RBAK			CLAV			STRN			RASI			LASI			PE01			RTH2			RTH3			RHEE			RD5M			RTOE			LTH2			LTH3			LTB2			LTB3			LHEE			LTOE			LD5M			RTH1			LPSI			RTB2			PE03			RPSI			PE02			RTB1			RTB3			T10			LTH1			LTB1			
		X1	Y1	Z1	X2	Y2	Z2	X3	Y3	Z3	X4	Y4	Z4	X5	Y5	Z5	X6	Y6	Z6	X7	Y7	Z7	X8	Y8	Z8	X9	Y9	Z9	X10	Y10	Z10	X11	Y11	Z11	X12	Y12	Z12	X13	Y13	Z13	X14	Y14	Z14	X15	Y15	Z15	X16	Y16	Z16	X17	Y17	Z17	X18	Y18	Z18	X19	Y19	Z19	X20	Y20	Z20	X21	Y21	Z21	X22	Y22	Z22	X23	Y23	Z23	X24	Y24	Z24	X25	Y25	Z25	X26	Y26	Z26	X27	Y27	Z27	X28	Y28	Z28	X29	Y29	Z29	X30	Y30	Z30	

142	0.705	805.071411132813	1353.202026367188	151.7971801757813	795.8369750976567	1262.780151367188	278.1536560058595	921.096069335938	1257.947875976563	116.4333419799805	959.3119506835942	1062.964965820313	111.1468734741212	901.1849975585942	850.2367553710942	279.5809631347657	911.1452026367192	869.1181030273442	56.28503799438479	740.513366699219	971.1688842773442	179.7941589355469	689.1658325195315	530.6426391601565	269.0815734863282	738.9929199218752	566.1170043945315	278.6483459472657	360.9211425781251	190.2611083984376	164.0335083007813	407.8413696289065	49.05657958984378	231.3406066894532	436.0321044921877	37.0925750732422	181.4774169921876	943.0339355468755	573.4915161132815	36.2831382751465	991.9284057617192	635.1689453125002	24.78252029418947	1016.749816894532	243.8452758789064	34.64522171020509	1052.409423828125	278.0828247070314	39.59551239013673	999.8317260742192	70.512565612793	88.63987731933597	1180.064697265625	56.70351409912112	87.2895202636719	1148.195556640625	44.31135177612306	37.77028656005861	709.1235961914065	604.7753906250002	290.0640869140626	721.384948730469	940.2609863281255	134.2856597900391	509.3788146972659	328.2270507812501	252.7568969726564	706.4361572265627	925.4113769531255	143.5480194091797	723.7717285156252	942.7399291992192	220.6342773437501	699.873229980469	919.6008911132817	193.6138916015626	570.0676879882815	339.2854003906251	250.5941925048829	517.392028808594	279.6512145996095	242.2006072998048	757.842956542969	1065.102905273438	183.949203491211	942.2628784179692	632.7593383789065	19.89046859741212	1011.855407714844	322.5209350585939	26.72219467163087	
143	0.71	821.5747070312505	1355.1337890625	150.6340789794922	814.124389648438	1266.035278320313	277.8920288085939	937.1279907226567	1260.193603515625	114.4812545776368	976.0964355468755	1065.980590820313	110.1257324218751	918.2662963867192	851.3947143554692	279.4964294433595	928.4752807617192	872.3649902343755	57.24905395507815	758.508972167969	973.9479370117192	180.6431884765626	702.0140380859377	534.162780761719	268.8420410156251	752.140563964844	569.0025024414065	279.2028808593751	373.0185546875001	197.7202606201173	163.6282653808594	413.7916564941409	53.8323669433594	230.6001281738282	441.3208312988284	40.38278961181642	180.7501983642579	957.3378906250005	575.2761840820315	35.16014099121095	1007.152770996094	636.6180419921877	25.22385025024415	1041.840576171875	243.6957244873048	34.70767211914064	1075.987548828125	279.600555419922	39.06678771972658	1033.11279296875	71.40622711181643	89.29921722412112	1214.021728515625	60.7579154968262	89.56800842285159	1182.373168945313	45.96501922607423	40.3832244873047	722.6523437500002	608.1342773437502	289.5416564941407	739.0584106445315	943.4074096679692	134.9722137451172	520.911560058594	333.2246093750001	252.1567230224611	724.2597656250002	928.764770507813	143.9111633300782	741.7453613281252	945.7708129882817	221.2947387695314	717.5740356445315	922.5144653320317	193.8986968994142	581.724548339844	343.7186584472657	250.6725006103517	528.7243652343752	284.4820251464845	242.2985839843751	774.7597656250005	1067.538818359375	185.5063171386719	957.5771484375005	634.856872558594	19.62363815307618	1033.164306640625	322.0818481445314	26.53627204895021	
144	0.715	838.1096191406255	1356.828857421875	149.4552764892579	832.3635253906255	1269.02978515625	277.575408935547	953.182495117188	1262.167846679688	112.5955047607422	992.891723632813	1068.8046875	109.1809082031251	935.3071289062505	852.447387695313	279.4060058593751	945.714721679688	875.3149414062505	58.2111625671387	776.384887695313	976.5440063476567	181.4043579101563	715.5249633789065	537.1464843750002	268.6247863769532	765.8248291015627	571.5117797851565	279.8063964843751	385.0219726562502	205.0713806152345	163.1959075927735	420.3873291015627	59.1329040527344	229.8359680175782	447.3011474609377	44.21139907836915	179.9952697753907	971.634643554688	576.7897949218752	34.02693939208986	1022.226440429688	637.748229980469	25.1462917327881	1066.141967773438	243.8189544677736	34.80403518676759	1098.839233398438	281.2086791992189	38.52042388916017	1065.03271484375	72.803092956543	89.86631011962893	1246.606689453125	65.29804992675784	91.86265563964847	1215.204223632813	48.04533386230472	43.04100799560548	736.597351074219	611.024353027344	289.0614318847657	756.638122558594	946.329223632813	135.6064147949219	533.080261230469	337.8300170898439	251.5330810546876	742.018493652344	931.8654785156255	144.2475585937501	759.6647949218752	948.5949707031255	221.8981323242189	735.2737426757815	925.2219848632817	194.1544342041017	594.0381469726565	347.5770263671876	250.6013031005861	540.5249633789065	288.9346313476564	242.2022552490236	791.5947875976567	1069.799560546875	186.8433837890626	972.743530273438	636.588317871094	19.11264610290528	1053.956665039063	321.799530029297	26.41248321533205	
145	0.72	854.6713867187505	1358.278564453125	148.2611999511719	850.5425415039067	1271.747314453125	277.206024169922	969.2612304687505	1263.86328125	110.7790603637696	1009.688720703125	1071.420043945313	108.3136367797852	952.3100585937505	853.3971557617192	279.3139038085939	962.8527832031255	877.9481811523442	59.14970397949222	794.121215820313	978.931762695313	182.0708465576172	729.765563964844	539.536315917969	268.4200439453126	780.1203613281255	573.5970458984377	280.4050292968751	396.9309997558596	212.3194122314454	162.6766204833985	427.5973815917971	64.91922760009768	229.0631103515626	453.940856933594	48.55769348144534	179.2313842773438	985.9989624023442	578.0359497070315	32.92474746704103	1037.225463867188	638.558532714844	24.50618171691896	1089.624389648438	244.1707763671876	34.92029571533205	1120.961181640625	282.8613281250001	37.97505187988283	1095.458129882813	74.58959960937503	90.34088134765628	1277.646484375	70.09510803222659	94.11768341064456	1246.51904296875	50.4265060424805	45.67245101928712	751.0294189453127	613.394714355469	288.6204833984376	774.1067504882817	948.9948730468755	136.1813507080079	545.8843383789065	342.0250854492189	250.8920135498048	759.6926879882815	934.6782836914067	144.5550842285157	777.5125122070317	951.1775512695317	222.4383392333986	752.9587402343752	927.692016601563	194.3814086914064	607.0069580078127	350.8445434570314	250.360565185547	552.7883911132815	292.9994506835939	241.8946838378907	808.3417358398442	1071.867065429688	187.9544525146485	987.8183593750005	637.9466552734377	18.36492156982423	1074.242919921875	321.6665649414064	26.34244537353517	
146	0.725	871.255004882813	1359.476684570313	147.0521392822266	868.6492309570317	1274.175415039063	276.7852783203126	985.3655395507817	1265.275390625	109.0345687866212	1026.47802734375	1073.809692382813	107.5249023437501	969.2790527343755	854.2473754882817	279.2243041992189	979.882934570313	880.2507324218755	60.04377365112308	811.702514648438	981.0852661132817	182.6347961425782	744.784606933594	541.2929687500002	268.2258605957032	795.0879516601567	575.2210693359377	280.9461975097657	408.7812500000002	219.4683685302736	162.0157012939454	435.387878417969	71.13704681396487	228.293914794922	461.2038269042971	53.38578796386722	178.4792022705079	1000.500549316407	579.013854980469	31.88176727294923	1052.227172851563	639.0485839843752	23.30366706848145	1112.2685546875	244.6987152099611	35.04237365722658	1142.35888671875	284.5068969726564	37.45003128051759	1124.27587890625	76.64298248291018	90.73414611816409	1306.9912109375	74.8954772949219	96.26947021484381	1276.16259765625	52.96054458618167	48.20210647583011	766.0105590820315	615.2072753906252	288.2206115722657	791.4509277343755	951.372680664063	136.6891174316407	559.3172607421877	345.8026428222657	250.2393493652345	777.2651977539067	937.168579101563	144.8309173583985	795.271850585938	953.4865722656255	222.9076690673829	770.6152343750005	929.8947753906255	194.5794677734376	620.6206665039065	353.5251770019532	249.9437866210939	565.511657714844	296.6786499023439	241.3713226318361	824.9963378906255	1073.723510742188	188.8383178710938	1002.865783691407	638.930603027344	17.39946746826173	1094.03857421875	321.6679992675782	26.31486320495607	
147	0.73	887.8555297851567	1360.418823242188	145.8282165527344	886.6716918945317	1276.304443359375	276.3139038085939	1001.495971679688	1266.402465820313	107.3643798828126	1043.249877929688	1075.95654296875	106.8153305053712	986.2191772460942	855.0009155273442	279.1411437988282	996.8024291992192	882.2145385742192	60.87397766113284	829.118041992188	982.9780273437505	183.0881500244141	760.607604980469	542.397155761719	268.0475158691407	810.7689819335942	576.3579101562502	281.3832092285157	420.6377563476565	226.5205078125001	161.170150756836	443.729187011719	77.720817565918	227.5368499755861	469.0573425292971	58.64432144165042	177.7598876953126	1015.20263671875	579.718933105469	30.91395568847658	1067.3046875	639.2212524414065	21.58435058593751	1134.063842773438	245.3436737060548	35.15710449218751	1163.043823242188	286.0893554687501	36.96375656127931	1151.395874023438	78.83492279052737	91.06461334228518	1334.522216796875	79.43831634521487	98.25116729736334	1304.0029296875	55.47998428344729	50.55741119384768	781.5891723632817	616.4383544921877	287.8682250976564	808.661254882813	953.4318237304692	137.1215820312501	573.3662719726565	349.1674194335939	249.5800323486329	794.7214355468755	939.3029785156255	145.0719757080079	812.9271850585942	955.493774414063	223.2976531982423	788.2288208007817	931.8023071289067	194.7481994628907	634.8594360351565	355.6420898437501	249.3589935302736	578.6923828125002	299.9852294921876	240.6405487060548	841.5567016601567	1075.352905273438	189.498519897461	1017.954223632813	639.5449829101565	16.24450302124024	1113.361083984375	321.7814331054689	26.31587982177736	
